<mxfile host="app.diagrams.net" modified="2023-01-10T11:25:41.177Z" agent="5.0 (Windows NT 10.0; Win64; x64) AppleWebKit/537.36 (KHTML, like Gecko) Chrome/108.0.0.0 Safari/537.36" etag="6Qe29W__qJxkFAlW6Rzg" version="20.8.3" type="github">
  <diagram id="coNlutR0dNUi-2ot5q4t" name="Page-1">
    <mxGraphModel dx="1050" dy="549" grid="1" gridSize="10" guides="1" tooltips="1" connect="1" arrows="1" fold="1" page="1" pageScale="1" pageWidth="850" pageHeight="1100" math="0" shadow="0">
      <root>
        <mxCell id="0" />
        <mxCell id="1" parent="0" />
        <mxCell id="_L3PoctCvsZCvmZVb6Lw-1" value="&lt;font style=&quot;font-size: 14px;&quot;&gt;Client&lt;/font&gt;" style="rounded=1;whiteSpace=wrap;html=1;absoluteArcSize=1;arcSize=14;strokeWidth=2;fillColor=#f5f5f5;fontColor=#333333;strokeColor=#666666;" parent="1" vertex="1">
          <mxGeometry x="210" y="230" width="100" height="100" as="geometry" />
        </mxCell>
        <mxCell id="_L3PoctCvsZCvmZVb6Lw-4" value="" style="endArrow=classic;html=1;rounded=0;exitX=1;exitY=0.5;exitDx=0;exitDy=0;entryX=0;entryY=0.5;entryDx=0;entryDy=0;" parent="1" source="_L3PoctCvsZCvmZVb6Lw-1" target="_L3PoctCvsZCvmZVb6Lw-5" edge="1">
          <mxGeometry width="50" height="50" relative="1" as="geometry">
            <mxPoint x="470" y="390" as="sourcePoint" />
            <mxPoint x="520" y="340" as="targetPoint" />
          </mxGeometry>
        </mxCell>
        <mxCell id="_L3PoctCvsZCvmZVb6Lw-7" style="edgeStyle=orthogonalEdgeStyle;rounded=0;orthogonalLoop=1;jettySize=auto;html=1;entryX=0.5;entryY=0;entryDx=0;entryDy=0;fontSize=14;" parent="1" source="_L3PoctCvsZCvmZVb6Lw-5" target="_L3PoctCvsZCvmZVb6Lw-6" edge="1">
          <mxGeometry relative="1" as="geometry" />
        </mxCell>
        <mxCell id="zdB63VuStM-wEihZcy6S-3" style="rounded=0;orthogonalLoop=1;jettySize=auto;html=1;entryX=0;entryY=0.5;entryDx=0;entryDy=0;fontSize=14;" edge="1" parent="1" source="_L3PoctCvsZCvmZVb6Lw-5" target="zdB63VuStM-wEihZcy6S-2">
          <mxGeometry relative="1" as="geometry" />
        </mxCell>
        <mxCell id="zdB63VuStM-wEihZcy6S-4" style="edgeStyle=none;rounded=0;orthogonalLoop=1;jettySize=auto;html=1;exitX=1;exitY=0.5;exitDx=0;exitDy=0;entryX=0;entryY=0.5;entryDx=0;entryDy=0;fontSize=14;" edge="1" parent="1" source="_L3PoctCvsZCvmZVb6Lw-5" target="zdB63VuStM-wEihZcy6S-1">
          <mxGeometry relative="1" as="geometry" />
        </mxCell>
        <mxCell id="_L3PoctCvsZCvmZVb6Lw-5" value="&lt;font style=&quot;font-size: 14px;&quot;&gt;API Gateway&lt;br&gt;(Load Balancer)&lt;/font&gt;" style="rounded=1;whiteSpace=wrap;html=1;absoluteArcSize=1;arcSize=14;strokeWidth=2;fillColor=#dae8fc;strokeColor=#6c8ebf;" parent="1" vertex="1">
          <mxGeometry x="480" y="230" width="130" height="100" as="geometry" />
        </mxCell>
        <mxCell id="_L3PoctCvsZCvmZVb6Lw-6" value="Discovery Server" style="rounded=1;whiteSpace=wrap;html=1;absoluteArcSize=1;arcSize=14;strokeWidth=2;fontSize=14;fillColor=#fff2cc;strokeColor=#d6b656;" parent="1" vertex="1">
          <mxGeometry x="495" y="450" width="100" height="100" as="geometry" />
        </mxCell>
        <mxCell id="zdB63VuStM-wEihZcy6S-5" style="edgeStyle=none;rounded=0;orthogonalLoop=1;jettySize=auto;html=1;exitX=0;exitY=0.75;exitDx=0;exitDy=0;entryX=1;entryY=0.5;entryDx=0;entryDy=0;fontSize=14;" edge="1" parent="1" source="zdB63VuStM-wEihZcy6S-1" target="_L3PoctCvsZCvmZVb6Lw-6">
          <mxGeometry relative="1" as="geometry" />
        </mxCell>
        <mxCell id="zdB63VuStM-wEihZcy6S-1" value="&lt;span style=&quot;font-size: 14px;&quot;&gt;Microservice 2&lt;br&gt;(Backend Service)&lt;br&gt;&lt;/span&gt;" style="rounded=1;whiteSpace=wrap;html=1;absoluteArcSize=1;arcSize=14;strokeWidth=2;fillColor=#d5e8d4;strokeColor=#82b366;" vertex="1" parent="1">
          <mxGeometry x="890" y="350" width="130" height="100" as="geometry" />
        </mxCell>
        <mxCell id="zdB63VuStM-wEihZcy6S-6" style="edgeStyle=none;rounded=0;orthogonalLoop=1;jettySize=auto;html=1;exitX=0;exitY=0.75;exitDx=0;exitDy=0;fontSize=14;" edge="1" parent="1" source="zdB63VuStM-wEihZcy6S-2" target="_L3PoctCvsZCvmZVb6Lw-6">
          <mxGeometry relative="1" as="geometry" />
        </mxCell>
        <mxCell id="zdB63VuStM-wEihZcy6S-2" value="&lt;span style=&quot;font-size: 14px;&quot;&gt;Microservice 1 (Webapplication)&lt;/span&gt;" style="rounded=1;whiteSpace=wrap;html=1;absoluteArcSize=1;arcSize=14;strokeWidth=2;fillColor=#d5e8d4;strokeColor=#82b366;" vertex="1" parent="1">
          <mxGeometry x="890" y="90" width="130" height="100" as="geometry" />
        </mxCell>
      </root>
    </mxGraphModel>
  </diagram>
</mxfile>
